<svg width="32" height="32" viewBox="0 0 32 32" xmlns="http://www.w3.org/2000/svg">
  <defs>
    <!-- Futuristic Gradients -->
    <radialGradient id="futuristicBg" cx="50%" cy="30%" r="70%">
      <stop offset="0%" style="stop-color:#1a2332;stop-opacity:1" />
      <stop offset="40%" style="stop-color:#0f172a;stop-opacity:1" />
      <stop offset="100%" style="stop-color:#020617;stop-opacity:1" />
    </radialGradient>
    
    <linearGradient id="holographicR" x1="0%" y1="0%" x2="100%" y2="100%">
      <stop offset="0%" style="stop-color:#00f5ff;stop-opacity:1" />
      <stop offset="30%" style="stop-color:#1e90ff;stop-opacity:1" />
      <stop offset="60%" style="stop-color:#20b2aa;stop-opacity:1" />
      <stop offset="100%" style="stop-color:#00f5ff;stop-opacity:1" />
    </linearGradient>
    
    <linearGradient id="neonGlow" x1="0%" y1="0%" x2="100%" y2="100%">
      <stop offset="0%" style="stop-color:#00f5ff;stop-opacity:0.8" />
      <stop offset="50%" style="stop-color:#1e90ff;stop-opacity:0.6" />
      <stop offset="100%" style="stop-color:#20b2aa;stop-opacity:0.4" />
    </linearGradient>
    
    <!-- Futuristic Filters -->
    <filter id="glow" x="-50%" y="-50%" width="200%" height="200%">
      <feGaussianBlur stdDeviation="1" result="coloredBlur"/>
      <feMerge> 
        <feMergeNode in="coloredBlur"/>
        <feMergeNode in="SourceGraphic"/>
      </feMerge>
    </filter>
    
    <filter id="innerGlow" x="-50%" y="-50%" width="200%" height="200%">
      <feGaussianBlur stdDeviation="0.5" result="blur"/>
      <feComposite in="blur" in2="SourceGraphic" operator="over"/>
    </filter>
    
    <!-- Animated Holographic Pattern -->
    <pattern id="holographicPattern" x="0" y="0" width="4" height="4" patternUnits="userSpaceOnUse">
      <rect width="4" height="4" fill="none"/>
      <circle cx="2" cy="2" r="0.5" fill="#00f5ff" opacity="0.3">
        <animate attributeName="opacity" values="0.1;0.6;0.1" dur="2s" repeatCount="indefinite"/>
      </circle>
    </pattern>
  </defs>
  
  <!-- Main Background Circle -->
  <circle cx="16" cy="16" r="15" fill="url(#futuristicBg)" stroke="url(#neonGlow)" stroke-width="1"/>
  
  <!-- Futuristic Grid Pattern -->
  <g opacity="0.2">
    <line x1="8" y1="4" x2="8" y2="28" stroke="#00f5ff" stroke-width="0.5"/>
    <line x1="16" y1="4" x2="16" y2="28" stroke="#1e90ff" stroke-width="0.5"/>
    <line x1="24" y1="4" x2="24" y2="28" stroke="#20b2aa" stroke-width="0.5"/>
    <line x1="4" y1="8" x2="28" y2="8" stroke="#00f5ff" stroke-width="0.5"/>
    <line x1="4" y1="16" x2="28" y2="16" stroke="#1e90ff" stroke-width="0.5"/>
    <line x1="4" y1="24" x2="28" y2="24" stroke="#20b2aa" stroke-width="0.5"/>
  </g>
  
  <!-- Holographic Data Streams -->
  <g opacity="0.4">
    <path d="M6 10 Q16 8 26 12" stroke="#00f5ff" stroke-width="0.8" fill="none">
      <animate attributeName="stroke-dasharray" values="0 20;10 10;0 20" dur="3s" repeatCount="indefinite"/>
    </path>
    <path d="M6 22 Q16 24 26 20" stroke="#20b2aa" stroke-width="0.8" fill="none">
      <animate attributeName="stroke-dasharray" values="0 20;10 10;0 20" dur="3s" begin="1s" repeatCount="indefinite"/>
    </path>
  </g>
  
  <!-- Central Futuristic "R" -->
  <g filter="url(#glow)">
    <path d="M10 9 L10 23 M10 9 L17 9 Q20 9 20 12 Q20 15 17 15 L10 15 M15 15 L20 23" 
          stroke="url(#holographicR)" 
          stroke-width="2.2" 
          fill="none" 
          stroke-linecap="round" 
          stroke-linejoin="round"/>
  </g>
  
  <!-- Quantum Dots (Animated) -->
  <circle cx="7" cy="7" r="1" fill="#00f5ff" opacity="0.8">
    <animate attributeName="opacity" values="0.3;1;0.3" dur="2s" repeatCount="indefinite"/>
  </circle>
  <circle cx="25" cy="7" r="0.8" fill="#1e90ff" opacity="0.6">
    <animate attributeName="opacity" values="0.2;0.8;0.2" dur="2.5s" begin="0.5s" repeatCount="indefinite"/>
  </circle>
  <circle cx="7" cy="25" r="0.8" fill="#20b2aa" opacity="0.6">
    <animate attributeName="opacity" values="0.2;0.8;0.2" dur="2.2s" begin="1s" repeatCount="indefinite"/>
  </circle>
  <circle cx="25" cy="25" r="1" fill="#00f5ff" opacity="0.8">
    <animate attributeName="opacity" values="0.3;1;0.3" dur="1.8s" begin="1.5s" repeatCount="indefinite"/>
  </circle>
  
  <!-- Futuristic Corner Accents -->
  <g opacity="0.6">
    <path d="M4 4 L8 4 L8 8" stroke="#00f5ff" stroke-width="1" fill="none"/>
    <path d="M28 4 L24 4 L24 8" stroke="#1e90ff" stroke-width="1" fill="none"/>
    <path d="M4 28 L8 28 L8 24" stroke="#20b2aa" stroke-width="1" fill="none"/>
    <path d="M28 28 L24 28 L24 24" stroke="#00f5ff" stroke-width="1" fill="none"/>
  </g>
  
  <!-- Central Energy Core -->
  <circle cx="16" cy="16" r="2" fill="none" stroke="url(#neonGlow)" stroke-width="0.5" opacity="0.8">
    <animate attributeName="r" values="1.5;2.5;1.5" dur="3s" repeatCount="indefinite"/>
    <animate attributeName="opacity" values="0.4;0.9;0.4" dur="3s" repeatCount="indefinite"/>
  </circle>
  
  <!-- Holographic Overlay Pattern -->
  <rect x="0" y="0" width="32" height="32" fill="url(#holographicPattern)" opacity="0.1"/>
</svg>