<svg width="64" height="64" viewBox="0 0 64 64" fill="none" xmlns="http://www.w3.org/2000/svg">
  <!-- Background Circle with Oceanic Gradient -->
  <circle cx="32" cy="32" r="30" fill="url(#oceanicGradient)" stroke="url(#borderGradient)" stroke-width="2"/>
  
  <!-- Central Wave Pattern representing "Revolution" -->
  <path d="M12 32 Q20 24 28 32 T44 32 Q52 24 60 32" stroke="url(#waveGradient)" stroke-width="3" fill="none" stroke-linecap="round"/>
  <path d="M8 28 Q16 20 24 28 T40 28 Q48 20 56 28" stroke="url(#waveGradient)" stroke-width="2" fill="none" stroke-linecap="round" opacity="0.7"/>
  <path d="M8 36 Q16 44 24 36 T40 36 Q48 44 56 36" stroke="url(#waveGradient)" stroke-width="2" fill="none" stroke-linecap="round" opacity="0.7"/>
  
  <!-- "R" Letter Integration -->
  <path d="M18 20 L18 44 M18 20 L26 20 Q30 20 30 26 Q30 32 26 32 L18 32 M26 32 L30 44" stroke="url(#letterGradient)" stroke-width="2.5" fill="none" stroke-linecap="round" stroke-linejoin="round"/>
  
  <!-- Geometric Elements representing "Tasks/Rules" -->
  <rect x="38" y="22" width="8" height="8" rx="2" fill="url(#accentGradient)" opacity="0.8"/>
  <rect x="40" y="34" width="6" height="6" rx="1" fill="url(#accentGradient)" opacity="0.6"/>
  <rect x="42" y="42" width="4" height="4" rx="1" fill="url(#accentGradient)" opacity="0.4"/>
  
  <!-- Bioluminescent Dots -->
  <circle cx="22" cy="16" r="2" fill="url(#glowGradient)">
    <animate attributeName="opacity" values="0.4;1;0.4" dur="2s" repeatCount="indefinite"/>
  </circle>
  <circle cx="46" cy="18" r="1.5" fill="url(#glowGradient)">
    <animate attributeName="opacity" values="0.6;1;0.6" dur="1.5s" repeatCount="indefinite"/>
  </circle>
  <circle cx="20" cy="48" r="1" fill="url(#glowGradient)">
    <animate attributeName="opacity" values="0.8;1;0.8" dur="1.8s" repeatCount="indefinite"/>
  </circle>
  
  <!-- Gradients -->
  <defs>
    <!-- Main oceanic background -->
    <radialGradient id="oceanicGradient" cx="0.3" cy="0.3" r="0.8">
      <stop offset="0%" stop-color="#1e293b"/>
      <stop offset="50%" stop-color="#334155"/>
      <stop offset="100%" stop-color="#0f172a"/>
    </radialGradient>
    
    <!-- Border gradient -->
    <linearGradient id="borderGradient" x1="0%" y1="0%" x2="100%" y2="100%">
      <stop offset="0%" stop-color="#00f5ff"/>
      <stop offset="50%" stop-color="#1e90ff"/>
      <stop offset="100%" stop-color="#20b2aa"/>
    </linearGradient>
    
    <!-- Wave gradient -->
    <linearGradient id="waveGradient" x1="0%" y1="0%" x2="100%" y2="0%">
      <stop offset="0%" stop-color="#00f5ff"/>
      <stop offset="50%" stop-color="#1e90ff"/>
      <stop offset="100%" stop-color="#20b2aa"/>
    </linearGradient>
    
    <!-- Letter gradient -->
    <linearGradient id="letterGradient" x1="0%" y1="0%" x2="100%" y2="100%">
      <stop offset="0%" stop-color="#f8fafc"/>
      <stop offset="100%" stop-color="#cbd5e1"/>
    </linearGradient>
    
    <!-- Accent elements -->
    <linearGradient id="accentGradient" x1="0%" y1="0%" x2="100%" y2="100%">
      <stop offset="0%" stop-color="#00f5ff"/>
      <stop offset="100%" stop-color="#1e90ff"/>
    </linearGradient>
    
    <!-- Glowing dots -->
    <radialGradient id="glowGradient" cx="50%" cy="50%" r="50%">
      <stop offset="0%" stop-color="#00f5ff"/>
      <stop offset="100%" stop-color="#20b2aa"/>
    </radialGradient>
  </defs>
</svg>